<?xml version="1.0" standalone="no"?>
<!DOCTYPE svg PUBLIC "-//W3C//DTD SVG 20010904//EN"
 "http://www.w3.org/TR/2001/REC-SVG-20010904/DTD/svg10.dtd">
<svg version="1.0" xmlns="http://www.w3.org/2000/svg"
 width="260.000000pt" height="260.000000pt" viewBox="0 0 260.000000 260.000000"
 preserveAspectRatio="xMidYMid meet">
<metadata>
Created by potrace 1.11, written by Peter Selinger 2001-2013
</metadata>
<g transform="translate(0.000000,260.000000) scale(0.100000,-0.100000)"
fill="#000000" stroke="none">
<path d="M578 1835 c-2 -2 -17 -5 -35 -8 -91 -14 -210 -100 -258 -185 -81
-144 -81 -375 0 -507 46 -74 141 -160 216 -195 57 -26 86 -33 162 -37 160 -9
262 23 349 108 81 81 109 158 113 315 5 170 -30 268 -135 373 -76 76 -126 105
-211 124 -58 13 -192 21 -201 12z m159 -247 c40 -51 51 -267 18 -354 -23 -61
-59 -94 -103 -94 -30 0 -35 5 -54 48 -27 59 -34 203 -14 280 17 62 50 119 74
125 34 9 70 7 79 -5z"/>
<path d="M1134 1811 c-2 -2 -4 -37 -4 -78 0 -71 1 -73 25 -73 20 0 25 -5 25
-24 0 -14 3 -27 8 -29 4 -3 7 -112 7 -244 l0 -238 -33 1 -32 1 0 -79 c0 -77 0
-78 25 -78 20 0 25 -5 25 -25 l0 -25 165 0 166 0 -3 78 c-3 73 -4 77 -25 76
-23 -1 -27 5 -23 40 1 11 -3 15 -9 12 -13 -8 -12 -12 -14 122 -1 57 1 106 6
109 4 2 7 -5 7 -17 0 -12 4 -29 10 -39 5 -10 11 -30 14 -44 2 -15 21 -85 42
-157 29 -103 40 -130 54 -130 11 0 20 -10 24 -25 l6 -25 129 0 129 0 12 48 c8
26 14 50 15 55 2 4 3 14 4 23 0 8 5 13 10 10 5 -3 8 -24 6 -45 -3 -37 -1 -40
23 -43 21 -2 27 -8 26 -25 l-1 -23 192 0 192 0 0 80 c0 51 -4 80 -11 79 -28
-3 -36 3 -36 26 0 14 -4 25 -9 25 -5 0 -9 105 -9 240 l1 240 33 0 33 0 -2 78
c-1 53 -6 77 -14 78 -7 1 -19 2 -26 3 -8 0 -13 11 -13 23 l1 22 -228 1 -228 0
-14 -50 c-7 -27 -25 -93 -39 -145 -13 -52 -30 -115 -37 -140 l-12 -45 -41 155
c-43 163 -51 184 -67 174 -6 -3 -15 7 -21 23 l-11 28 -224 0 c-123 0 -226 -2
-229 -4z m840 -586 l2 -95 -31 0 -31 0 25 99 c14 55 27 98 30 96 2 -2 4 -47 5
-100z"/>
</g>
</svg>
